<svg width="40" height="41" viewBox="0 0 40 41" fill="none" xmlns="http://www.w3.org/2000/svg">
<path d="M37.8571 9.28571C38.4524 9.28571 38.9583 9.49405 39.375 9.91071C39.7917 10.3274 40 10.8333 40 11.4286V38.5714C40 39.1667 39.7917 39.6726 39.375 40.0893C38.9583 40.506 38.4524 40.7143 37.8571 40.7143H16.4286C15.8333 40.7143 15.3274 40.506 14.9107 40.0893C14.494 39.6726 14.2857 39.1667 14.2857 38.5714V32.1429H2.14286C1.54762 32.1429 1.04167 31.9345 0.625 31.5179C0.208333 31.1012 0 30.5952 0 30V15C0 14.4048 0.14881 13.75 0.446429 13.0357C0.744048 12.3214 1.10119 11.756 1.51786 11.3393L10.625 2.23214C11.0417 1.81547 11.6071 1.45833 12.3214 1.16071C13.0357 0.863093 13.6905 0.714283 14.2857 0.714283H23.5714C24.1667 0.714283 24.6726 0.922617 25.0893 1.33929C25.506 1.75595 25.7143 2.2619 25.7143 2.85714V10.1786C26.7262 9.58333 27.6786 9.28571 28.5714 9.28571H37.8571ZM25.7143 14.0402L19.0402 20.7143H25.7143V14.0402ZM11.4286 5.46875L4.75446 12.1429H11.4286V5.46875ZM15.8036 19.9107L22.8571 12.8571V3.57143H14.2857V12.8571C14.2857 13.4524 14.0774 13.9583 13.6607 14.375C13.244 14.7917 12.7381 15 12.1429 15H2.85714V29.2857H14.2857V23.5714C14.2857 22.9762 14.4345 22.3214 14.7321 21.6071C15.0298 20.8929 15.3869 20.3274 15.8036 19.9107ZM37.1429 37.8571V12.1429H28.5714V21.4286C28.5714 22.0238 28.3631 22.5298 27.9464 22.9464C27.5298 23.3631 27.0238 23.5714 26.4286 23.5714H17.1429V37.8571H37.1429Z" fill="#185FAD"/>
</svg>
