<svg width="40" height="41" viewBox="0 0 40 41" fill="none" xmlns="http://www.w3.org/2000/svg">
<path d="M37.1429 37.1429C37.1429 37.5223 36.808 37.8571 36.4286 37.8571H12.1429C11.7634 37.8571 11.4286 37.5223 11.4286 37.1429V12.8571C11.4286 12.4777 11.7634 12.1429 12.1429 12.1429H36.4286C36.808 12.1429 37.1429 12.4777 37.1429 12.8571V37.1429ZM40 12.8571C40 10.8929 38.3929 9.28571 36.4286 9.28571H12.1429C10.1786 9.28571 8.57143 10.8929 8.57143 12.8571V37.1429C8.57143 39.1071 10.1786 40.7143 12.1429 40.7143H36.4286C38.3929 40.7143 40 39.1071 40 37.1429V12.8571ZM31.4286 4.28572C31.4286 2.32143 29.8214 0.714286 27.8571 0.714286H3.57143C1.60714 0.714286 0 2.32143 0 4.28572V28.5714C0 30.5357 1.60714 32.1429 3.57143 32.1429H7.14286V29.2857H3.57143C3.19196 29.2857 2.85714 28.9509 2.85714 28.5714V4.28572C2.85714 3.90625 3.19196 3.57143 3.57143 3.57143H27.8571C28.2366 3.57143 28.5714 3.90625 28.5714 4.28572V7.85714H31.4286V4.28572Z" fill="#185FAD"/>
</svg>
