<svg width="44" height="44" viewBox="0 0 44 44" fill="none" xmlns="http://www.w3.org/2000/svg">
<path d="M18.315 41.7084C17.9483 41.7084 17.655 41.6351 17.435 41.5434C16.7017 41.2684 15.455 40.3701 15.455 37.5284V25.7034H11.165C8.70834 25.7034 7.82834 24.5484 7.51668 23.8701C7.20501 23.1734 6.93001 21.7617 8.54334 19.9101L22.4217 4.14341C24.2917 2.01674 25.8133 2.16341 26.5467 2.43841C27.28 2.71341 28.5267 3.61174 28.5267 6.45341V18.2784H32.8167C35.2733 18.2784 36.1533 19.4334 36.465 20.1117C36.7767 20.8084 37.0517 22.2201 35.4383 24.0717L21.56 39.8384C20.2583 41.3234 19.1217 41.7084 18.315 41.7084ZM25.5383 5.02341C25.4833 5.09674 25.0983 5.28007 24.4933 5.97674L10.615 21.7434C10.1017 22.3301 10.0283 22.6967 10.0283 22.7701C10.065 22.7884 10.395 22.9717 11.165 22.9717H16.83C17.5817 22.9717 18.205 23.5951 18.205 24.3467V37.5467C18.205 38.4634 18.37 38.8667 18.4433 38.9767C18.4983 38.9034 18.8833 38.7201 19.4883 38.0234L33.3667 22.2567C33.88 21.6701 33.9533 21.3034 33.9533 21.2301C33.9167 21.2117 33.5867 21.0284 32.8167 21.0284H27.1517C26.4 21.0284 25.7767 20.4051 25.7767 19.6534V6.45341C25.795 5.53674 25.6117 5.15174 25.5383 5.02341Z" fill="#185FAD"/>
</svg>
