<svg width="46" height="46" viewBox="0 0 46 46" fill="none" xmlns="http://www.w3.org/2000/svg">
<path d="M31.625 43.6042H14.375C8.05 43.6042 7.1875 40.1542 7.1875 36.4167V19.5883C7.1875 18.8025 7.83917 18.1508 8.625 18.1508C9.41083 18.1508 10.0625 18.8025 10.0625 19.5883V36.4167C10.0625 39.7517 10.6375 40.7292 14.375 40.7292H31.625C35.3625 40.7292 35.9375 39.7517 35.9375 36.4167V19.5883C35.9375 18.8025 36.5892 18.1508 37.375 18.1508C38.1608 18.1508 38.8125 18.8025 38.8125 19.5883V36.4167C38.8125 40.1542 37.95 43.6042 31.625 43.6042Z" fill="white"/>
<path d="M36.4166 20.6042H9.58331C4.94498 20.6042 2.39581 18.055 2.39581 13.4167V9.58334C2.39581 4.94501 4.94498 2.39584 9.58331 2.39584H36.4166C41.055 2.39584 43.6041 4.94501 43.6041 9.58334V13.4167C43.6041 18.055 41.055 20.6042 36.4166 20.6042ZM9.58331 5.27084C6.55498 5.27084 5.27081 6.55501 5.27081 9.58334V13.4167C5.27081 16.445 6.55498 17.7292 9.58331 17.7292H36.4166C39.445 17.7292 40.7291 16.445 40.7291 13.4167V9.58334C40.7291 6.55501 39.445 5.27084 36.4166 5.27084H9.58331Z" fill="white"/>
<path d="M26.4883 28.2708H19.5117C18.7258 28.2708 18.0742 27.6192 18.0742 26.8333C18.0742 26.0475 18.7258 25.3958 19.5117 25.3958H26.4883C27.2742 25.3958 27.9258 26.0475 27.9258 26.8333C27.9258 27.6192 27.2742 28.2708 26.4883 28.2708Z" fill="white"/>
</svg>
